<?xml version="1.0" encoding="utf-8"?>
<!-- Generator: Adobe Illustrator 22.0.0, SVG Export Plug-In . SVG Version: 6.00 Build 0)  -->
<svg version="1.1" id="Layer_1" xmlns="http://www.w3.org/2000/svg" xmlns:xlink="http://www.w3.org/1999/xlink" x="0px" y="0px"
	 viewBox="0 0 175 50" style="enable-background:new 0 0 175 50;" xml:space="preserve">
<style type="text/css">
	.st0{display:none;}
	.st1{display:inline;fill:none;stroke:#000000;stroke-width:0.75;stroke-miterlimit:10;}
	.st2{fill:url(#SVGID_1_);}
	.st3{fill:url(#SVGID_2_);}
	.st4{fill:url(#SVGID_3_);}
	.st5{fill:url(#SVGID_4_);}
	.st6{fill:url(#SVGID_5_);}
	.st7{fill:url(#SVGID_6_);}
	.st8{fill:url(#SVGID_7_);}
	.st9{fill:url(#SVGID_8_);}
	.st10{fill:url(#SVGID_9_);}
	.st11{fill:#FFFFFF;}
</style>
<g class="st0">
	<rect x="-152.8" y="953.8" class="st1" width="82.4" height="246.2"/>
	<rect x="171.9" y="953.8" class="st1" width="82.4" height="246.2"/>
	<rect x="9.6" y="953.8" class="st1" width="83.1" height="84.4"/>
	<rect x="91.2" y="872.4" class="st1" width="83.1" height="84.4"/>
	<rect x="-71.4" y="872.4" class="st1" width="83.1" height="84.4"/>
	<rect x="9.6" y="791.8" class="st1" width="83.1" height="84.4"/>
	
		<rect x="-177.6" y="905.5" transform="matrix(0.7071 -0.7071 0.7071 0.7071 -655.7283 246.1869)" class="st1" width="293.9" height="18.3"/>
	
		<rect x="-21.9" y="871" transform="matrix(0.7071 -0.7071 0.7071 0.7071 -661.6708 263.4772)" class="st1" width="18.3" height="118.9"/>
	
		<rect x="124.2" y="767.6" transform="matrix(0.7071 -0.7071 0.7071 0.7071 -607.638 362.1253)" class="st1" width="18.3" height="293.9"/>
	
		<rect x="56.9" y="943.7" transform="matrix(0.7071 -0.7071 0.7071 0.7071 -646.2335 345.5783)" class="st1" width="74.3" height="18.3"/>
</g>
<g>
	<g>
		<g>
			
				<linearGradient id="SVGID_1_" gradientUnits="userSpaceOnUse" x1="-5398.4868" y1="28.9103" x2="-5377.8726" y2="28.9103" gradientTransform="matrix(-1 0 0 -1 -5370.9185 59.8542)">
				<stop  offset="4.326816e-03" style="stop-color:#3C2EFF"/>
				<stop  offset="1" style="stop-color:#00EBBF"/>
			</linearGradient>
			<path class="st2" d="M18.9,18.2c0,0.1,0,0.3,0,0.4c0,1.8-0.7,3.7-2,4.9c-0.6,0.6-1.3,1.2-1.9,1.9c-1.2,1.3-3,1.9-4.8,1.7
				c-0.1,0-0.2,0-0.3,0c-1.7,0-3.3,1.2-2.9,3C7.4,32,8,34,11,34c0.1,0,0.2,0,0.3,0c1.9,0.2,3.6,1.2,4.9,2.6c0.7,0.7,1.3,1.4,2,2.1
				c1.2,1.4,2.2,3.1,2.5,4.9c0,0.1,0,0.2,0.1,0.3c0.3,0.9,0.8,1.8,1.5,2.5c0.7,0.6,1.5,1.2,2.4,1.4c1.8,0.4,3-1.2,2.9-2.9
				c-0.1-2.1-1.9-3.8-3.9-4.1c0,0,0,0-0.1,0c-1.7-0.2-3.3-1.1-4.5-2.4c-0.9-1-1.8-2-2.8-3c-1.2-1.2-2.2-2.8-2.4-4.5v0v0
				c-0.2-1.6,0.4-3.1,1.4-4.3c0.9-0.9,1.7-1.8,2.6-2.7c1.3-1.2,3-1.9,4.8-2c0,0,0,0,0.1,0c2.2-0.1,4.3-1.9,4.3-4.2
				c0-2.2-1.8-3.9-4-3.7C21,14.2,19,16.1,18.9,18.2z"/>
			
				<linearGradient id="SVGID_2_" gradientUnits="userSpaceOnUse" x1="-5411.7974" y1="47.4819" x2="-5377.8726" y2="47.4819" gradientTransform="matrix(-1 0 0 -1 -5370.9185 59.8542)">
				<stop  offset="4.326816e-03" style="stop-color:#3C2EFF"/>
				<stop  offset="1" style="stop-color:#00EBBF"/>
			</linearGradient>
			<path class="st3" d="M36.6,14c-0.1,0-0.3,0-0.4,0c-1.9,0-3.9-0.7-5.2-2c-0.6-0.7-1.2-1.3-1.9-1.9c-1.2-1.3-1.8-3-1.6-4.7
				c0-0.1,0-0.2,0-0.3c0.1-1.1-0.5-2.4-1.7-2.8c-1.3-0.4-3.1,0.3-4.1,1.1c-0.6,0.5-0.8,1.2-1,1.9c-0.2,0.7-0.1,1.3-0.3,2
				c-0.4,1.5-1.3,2.8-2.3,3.9c-0.7,0.7-1.3,1.4-2,2.1c-1.3,1.3-3,2.3-4.8,2.6c-0.1,0-0.2,0-0.4,0.1c-2.5,0.3-3.6,2.1-4,3.9
				c-0.2,0.7,0,1.5,0.5,2.1c0.6,0.6,1.5,0.8,2.3,0.8c2-0.1,3.8-1.8,4.1-3.8c0,0,0,0,0-0.1c0.2-1.7,1.2-3.2,2.4-4.4c1-1,1.9-2,2.8-3
				c1.2-1.2,2.7-2.2,4.4-2.4h0h0c1.6-0.2,3.1,0.4,4.3,1.5c0.9,0.9,1.8,1.8,2.6,2.7c1.2,1.2,2,2.9,2,4.6c0,0,0,0,0,0.1
				c0.1,2.3,2.2,4.1,4.4,4.1c2.1,0,4.1-1.5,3.9-3.7C40.7,16.1,38.8,14.2,36.6,14z"/>
			
				<linearGradient id="SVGID_3_" gradientUnits="userSpaceOnUse" x1="-5419.8877" y1="18.9069" x2="-5413.5645" y2="18.9069" gradientTransform="matrix(-1 0 0 -1 -5370.9185 59.8542)">
				<stop  offset="4.326816e-03" style="stop-color:#3C2EFF"/>
				<stop  offset="1" style="stop-color:#00EBBF"/>
			</linearGradient>
			<path class="st4" d="M42.9,42.4c0.7-1.9,2.4-3.6,4.3-4.3c0.4-0.1,1.3-0.5,1.6-0.1c0.3,0.4-0.3,1.1-0.5,1.3
				c-0.6,0.8-1.3,1.5-2,2.2s-1.4,1.4-2.2,2c-0.3,0.2-0.9,0.8-1.3,0.5C42.4,43.7,42.8,42.8,42.9,42.4z"/>
			
				<linearGradient id="SVGID_4_" gradientUnits="userSpaceOnUse" x1="-5387.9761" y1="18.8893" x2="-5381.6528" y2="18.8893" gradientTransform="matrix(-1 0 0 -1 -5370.9185 59.8542)">
				<stop  offset="4.326816e-03" style="stop-color:#3C2EFF"/>
				<stop  offset="1" style="stop-color:#00EBBF"/>
			</linearGradient>
			<path class="st5" d="M11.3,39.3c-0.2-0.3-0.8-0.9-0.5-1.3c0.4-0.4,1.2,0,1.6,0.1c1.9,0.7,3.6,2.5,4.3,4.4
				c0.1,0.4,0.5,1.2,0.1,1.6c-0.4,0.3-1.1-0.3-1.3-0.5c-0.8-0.6-1.5-1.3-2.2-2C12.6,40.8,11.9,40.1,11.3,39.3z"/>
			<linearGradient id="SVGID_5_" gradientUnits="userSpaceOnUse" x1="49.1204" y1="6.3611" x2="38.4853" y2="14.9597">
				<stop  offset="4.326816e-03" style="stop-color:#3C2EFF"/>
				<stop  offset="1" style="stop-color:#00EBBF"/>
			</linearGradient>
			<path class="st6" d="M42.9,7.6c-0.1-0.4-0.5-1.2-0.1-1.6c0.4-0.3,1.1,0.3,1.3,0.5c0.8,0.6,1.5,1.3,2.2,2c0.7,0.7,1.4,1.4,2,2.2
				c0.2,0.3,0.8,0.9,0.5,1.3c-0.4,0.4-1.3,0-1.6-0.1C45.4,11.1,43.7,9.4,42.9,7.6z"/>
			
				<linearGradient id="SVGID_6_" gradientUnits="userSpaceOnUse" x1="-5387.9819" y1="50.8393" x2="-5381.6611" y2="50.8393" gradientTransform="matrix(-1 0 0 -1 -5370.9185 59.8542)">
				<stop  offset="4.326816e-03" style="stop-color:#3C2EFF"/>
				<stop  offset="1" style="stop-color:#00EBBF"/>
			</linearGradient>
			<path class="st7" d="M11.3,10.7c0.6-0.8,1.3-1.5,2-2.2s1.4-1.4,2.2-2c0.3-0.2,0.9-0.8,1.3-0.5c0.4,0.3,0,1.2-0.1,1.5
				c-0.7,1.9-2.5,3.6-4.3,4.3c-0.4,0.1-1.3,0.5-1.6,0.2C10.5,11.7,11.1,11,11.3,10.7z"/>
			
				<linearGradient id="SVGID_7_" gradientUnits="userSpaceOnUse" x1="-5423.6563" y1="40.9737" x2="-5403.0332" y2="40.9737" gradientTransform="matrix(-1 0 0 -1 -5370.9185 59.8542)">
				<stop  offset="4.326816e-03" style="stop-color:#3C2EFF"/>
				<stop  offset="1" style="stop-color:#00EBBF"/>
			</linearGradient>
			<path class="st8" d="M36.1,9C36.1,9,36.1,9,36.1,9c1.9,0.2,3.6,1.2,4.8,2.6c0.7,0.8,1.5,1.6,2.2,2.4c1.3,1.3,2.3,2.9,2.6,4.8v0
				c0,0,0,0,0,0.1c0.2,1.7-0.3,3.3-1.6,4.6c-0.6,0.6-1.3,1.2-1.8,1.8c-1.4,1.4-3.3,2.2-5.2,2.1c0,0-0.1,0-0.1,0
				c-2.3,0-4.4,1.9-4.4,4.3c0,2.2,1.7,4.3,4.1,4.1c2.2-0.2,4.2-2.2,4.3-4.4c0,0,0-0.1,0-0.1c0.1-1.9,0.8-3.8,2.2-5.2
				c0.6-0.6,1.2-1.2,1.9-1.8c1.3-1.2,3-1.7,4.8-1.5c0,0,0,0,0.1,0c0.8,0,1.7-0.1,2.3-0.7c0.6-0.6,0.7-1.3,0.5-2.1
				c-0.5-2.6-1.7-3.5-4-3.9c0,0-0.1,0-0.1,0c-1.9-0.4-3.7-1.4-5-2.8c-0.6-0.7-1.2-1.3-1.8-1.9c-1.3-1.4-2.3-3.1-2.7-4.9
				c0-0.1,0-0.1,0-0.2c-0.5-1.7-2.1-3.5-3.9-3.9c-1.8-0.4-3,1.1-2.9,2.8C32.2,7,34.1,8.7,36.1,9z"/>
			<linearGradient id="SVGID_8_" gradientUnits="userSpaceOnUse" x1="50.0794" y1="15.1126" x2="25.415" y2="41.5872">
				<stop  offset="4.326816e-03" style="stop-color:#3C2EFF"/>
				<stop  offset="1" style="stop-color:#00EBBF"/>
			</linearGradient>
			<path class="st9" d="M23,35.6c0.1,0,0.3,0,0.4,0c1.9,0,4,0.7,5.3,2.2c0.6,0.7,1.2,1.3,1.8,2c1.2,1.3,1.8,3.1,1.6,4.8
				c0,0.1,0,0.2,0,0.3c-0.1,1.7,1.1,3.3,2.9,2.9c0.9-0.2,2.1-0.6,2.8-1.2c0.7-0.7,0.9-1.8,1.1-2.8c0-0.1,0-0.2,0.1-0.3
				c0.3-1.8,1.3-3.6,2.5-4.9c0.7-0.7,1.3-1.4,2-2.1c1.3-1.3,3-2.3,4.9-2.5c0.1,0,0.2-0.1,0.4-0.1c2.3,0,3.6-2,3.9-3.8
				c0.4-1.8-1.2-3-2.9-3c-2.1,0-3.8,1.7-4.1,3.7c0,0,0,0,0,0.1c-0.2,1.7-1.2,3.3-2.4,4.5c-1,1-1.8,2-2.8,3c-1.2,1.2-2.7,2.2-4.4,2.4
				h0h0c-1.6,0.2-3.2-0.4-4.3-1.5c-0.9-0.9-1.8-1.9-2.6-2.9c-1.2-1.4-2-3.1-2-5c0,0,0,0,0-0.1c-0.1-2.3-2.1-4.2-4.4-4.2
				c-2.2,0-4.1,1.7-3.9,4C18.9,33.4,20.8,35.4,23,35.6z"/>
		</g>
	</g>
	<linearGradient id="SVGID_9_" gradientUnits="userSpaceOnUse" x1="28.1055" y1="7.901" x2="31.1682" y2="37.4565">
		<stop  offset="4.326816e-03" style="stop-color:#3C2EFF"/>
		<stop  offset="1" style="stop-color:#00EBBF"/>
	</linearGradient>
	<circle class="st10" cx="29.9" cy="24.8" r="3"/>
	<g>
		<path class="st11" d="M89,18.3c-4.4,0-8,3.6-8,8v6.2c0,1,0.8,1.8,1.8,1.8c1,0,1.8-0.8,1.8-1.8v-6.2c0-2.5,2-4.4,4.4-4.4
			c2.5,0,4.4,2,4.4,4.4v6.2c0,1,0.8,1.8,1.8,1.8c1,0,1.8-0.8,1.8-1.8v-6.2C97.1,22,93.5,18.3,89,18.3z"/>
		<path class="st11" d="M73.1,18.6c-0.4-0.1-0.7-0.1-1.1-0.2l0,0c-0.1,0-0.1,0-0.2,0c0,0,0,0,0.1,0c-0.2,0-0.4,0-0.6,0
			c-0.3,0-0.7,0-1,0c-0.4,0-0.7,0.1-1,0.2h0c0,0,0,0-0.1,0c-0.1,0-0.2,0-0.3,0.1s-0.2,0-0.2,0.1c0,0-0.1,0-0.2,0
			c-0.1,0-0.2,0.1-0.4,0.1c-1.3,0.6-2.5,1.5-3.3,2.6c-0.1,0.1-0.1,0.2-0.2,0.3c-0.1,0.2-0.3,0.4-0.4,0.6c-0.1,0.1-0.1,0.2-0.2,0.3
			c-0.1,0.2-0.2,0.5-0.3,0.7c0,0.1,0,0.1-0.1,0.2c0,0.1-0.1,0.3-0.1,0.4c0,0.1,0,0.1,0,0.2c0,0.1-0.1,0.3-0.1,0.4
			c0,0.1,0,0.3-0.1,0.4c0,0,0,0.1,0,0.2c0,0.1,0,0.3-0.1,0.4c0,0.2,0,0.4,0,0.6c0,0.1,0,0.1,0,0.2c0,0.9,0.2,1.8,0.4,2.6l0,0
			c0.1,0.2,0.2,0.4,0.3,0.7l0,0c0.1,0.1,0.1,0.3,0.2,0.4c0.1,0.2,0.2,0.4,0.4,0.6s0.3,0.4,0.4,0.6c0,0.1,0.1,0.1,0.1,0.2
			c0.2,0.2,0.4,0.5,0.6,0.7c0.3,0.3,0.6,0.5,0.9,0.7l0,0c0.2,0.1,0.4,0.3,0.7,0.4c0.1,0.1,0.2,0.1,0.4,0.2c0.2,0.1,0.5,0.2,0.7,0.3
			c0.9,0.4,1.9,0.6,3,0.6c0.1,0,0.2,0,0.2,0c0,0,0.1,0,0.2,0c0,0,0.1,0,0.2,0s0.1,0,0.1,0c0.1,0,0.2,0,0.2,0c0,0,0.1,0,0.1,0
			c0.1,0,0.2,0,0.2,0c0,0,0,0,0.1,0c0.1,0,0.2,0,0.3-0.1c0.1,0,0.2,0,0.3-0.1c0,0,0,0,0,0c0.2,0,0.4-0.1,0.6-0.2
			c0.3-0.1,0.6-0.2,0.9-0.4l0,0c0.5-0.3,1-0.6,1.5-0.9c0.8-0.6,0.9-1.7,0.3-2.5l0,0c-0.3-0.3-0.6-0.5-1-0.6c0,0-0.1,0-0.1,0
			c-0.1,0-0.2,0-0.3,0c0,0-0.1,0-0.1,0s-0.1,0-0.1,0c0,0-0.1,0-0.1,0c0,0,0,0,0,0s0,0-0.1,0c0,0,0,0,0,0c0,0,0,0,0,0l0,0
			c0,0-0.1,0-0.2,0c0,0-0.1,0-0.1,0.1c0,0-0.1,0-0.1,0.1c0,0,0,0,0,0c0,0-0.1,0.1-0.1,0.1l0,0c0,0-0.1,0.1-0.1,0.1
			c0,0-0.1,0.1-0.2,0.1c-0.2,0.2-0.5,0.3-0.7,0.4c-0.1,0-0.2,0.1-0.3,0.1c-0.2,0.1-0.4,0.1-0.5,0.1c-0.1,0-0.2,0-0.4,0.1
			c-0.2,0-0.4,0-0.6,0c-0.2,0-0.4,0-0.7,0c-0.1,0-0.3,0-0.4-0.1c-0.1,0-0.3-0.1-0.4-0.1c-0.3-0.1-0.5-0.2-0.8-0.4
			c-0.1-0.1-0.2-0.2-0.4-0.2c-0.4-0.3-0.7-0.6-0.9-0.9c-0.1-0.1-0.2-0.2-0.2-0.4c-0.1-0.2-0.3-0.5-0.4-0.8c0-0.1-0.1-0.3-0.1-0.4
			c0-0.1-0.1-0.3-0.1-0.4c0-0.2,0-0.4,0-0.7c0-0.1,0-0.2,0-0.3c0-0.1,0-0.1,0-0.2c0-0.1,0-0.1,0-0.2c0,0,0,0,0-0.1
			c0-0.1,0-0.1,0-0.2c0-0.1,0-0.1,0-0.2c0,0,0-0.1,0-0.1c0,0,0,0,0,0c0-0.2,0.1-0.3,0.2-0.5c0,0,0-0.1,0.1-0.2
			c0-0.1,0.1-0.2,0.1-0.3c0-0.1,0.1-0.2,0.2-0.3c0.1-0.2,0.3-0.4,0.5-0.6c0,0,0.1-0.1,0.1-0.1c0,0,0,0,0.1-0.1
			c0.1-0.1,0.2-0.2,0.3-0.2c0,0,0,0,0.1-0.1c0.2-0.2,0.4-0.3,0.7-0.4c0,0,0.1,0,0.1-0.1c0,0,0.1,0,0.1-0.1c0,0,0.1,0,0.1,0
			c0,0,0.1,0,0.2-0.1c0.5-0.2,1-0.3,1.5-0.3c0.3,0,0.5,0,0.7,0.1l0,0l0,0c0.4,0.1,0.7,0.2,1.1,0.3c1.6,0.7,2.7,2.2,2.7,4.1v2.1
			c0.6,0.1,1.2,0.5,1.7,1l0,0l0,0c0.5,0.6,0.7,1.3,0.6,2.1c-0.1,0.7-0.5,1.4-1.1,1.9c-0.2,0.2-0.4,0.3-0.6,0.5
			c0.3,0.3,0.7,0.4,1.2,0.4c1,0,1.8-0.8,1.8-1.8v-6.3C79.3,22.6,76.6,19.4,73.1,18.6z"/>
		<path class="st11" d="M108.6,18.6c-0.4-0.1-0.7-0.1-1.1-0.2l0,0c-0.1,0-0.1,0-0.2,0c0,0,0,0,0.1,0c-0.2,0-0.4,0-0.6,0
			c-0.3,0-0.7,0-1,0c-0.4,0-0.7,0.1-1,0.2h0c0,0,0,0-0.1,0c-0.1,0-0.2,0-0.3,0.1c-0.1,0-0.2,0-0.2,0.1c0,0-0.1,0-0.2,0
			c-0.1,0-0.2,0.1-0.4,0.1c-1.3,0.6-2.5,1.5-3.3,2.6c-0.1,0.1-0.1,0.2-0.2,0.3c-0.1,0.2-0.3,0.4-0.4,0.6c-0.1,0.1-0.1,0.2-0.2,0.3
			c-0.1,0.2-0.2,0.5-0.3,0.7c0,0.1,0,0.1-0.1,0.2c0,0.1-0.1,0.3-0.1,0.4c0,0.1,0,0.1,0,0.2c0,0.1-0.1,0.3-0.1,0.4
			c0,0.1,0,0.3-0.1,0.4c0,0,0,0.1,0,0.2c0,0.1,0,0.3-0.1,0.4c0,0.2,0,0.4,0,0.6c0,0.1,0,0.1,0,0.2c0,0.9,0.2,1.8,0.4,2.6l0,0
			c0.1,0.2,0.2,0.4,0.3,0.7l0,0c0.1,0.1,0.1,0.3,0.2,0.4c0.1,0.2,0.2,0.4,0.4,0.6s0.3,0.4,0.4,0.6c0,0.1,0.1,0.1,0.1,0.2
			c0.2,0.2,0.4,0.5,0.6,0.7c0.3,0.3,0.6,0.5,0.9,0.7l0,0c0.2,0.1,0.4,0.3,0.7,0.4c0.1,0.1,0.2,0.1,0.4,0.2c0.2,0.1,0.5,0.2,0.7,0.3
			c0.9,0.4,1.9,0.6,3,0.6c0.1,0,0.2,0,0.2,0c0,0,0.1,0,0.2,0c0,0,0.1,0,0.2,0c0,0,0.1,0,0.1,0c0.1,0,0.2,0,0.2,0c0,0,0.1,0,0.1,0
			c0.1,0,0.2,0,0.2,0c0,0,0,0,0.1,0c0.1,0,0.2,0,0.3-0.1c0.1,0,0.2,0,0.3-0.1c0,0,0,0,0,0c0.2,0,0.4-0.1,0.6-0.2
			c0.3-0.1,0.6-0.2,0.9-0.4l0,0c0.5-0.3,1-0.6,1.5-0.9c0.8-0.6,0.9-1.7,0.3-2.5l0,0c-0.3-0.3-0.6-0.5-1-0.6c0,0-0.1,0-0.1,0
			c-0.1,0-0.2,0-0.3,0c0,0-0.1,0-0.1,0c0,0-0.1,0-0.1,0c0,0-0.1,0-0.1,0c0,0,0,0,0,0c0,0,0,0-0.1,0c0,0,0,0,0,0c0,0,0,0,0,0l0,0
			c0,0-0.1,0-0.2,0c0,0-0.1,0-0.1,0.1c0,0-0.1,0-0.1,0.1c0,0,0,0,0,0c0,0-0.1,0.1-0.1,0.1l0,0c0,0-0.1,0.1-0.1,0.1
			c0,0-0.1,0.1-0.2,0.1c-0.2,0.2-0.5,0.3-0.7,0.4c-0.1,0-0.2,0.1-0.3,0.1c-0.2,0.1-0.4,0.1-0.5,0.1c-0.1,0-0.2,0-0.4,0.1
			c-0.2,0-0.4,0-0.6,0c-0.2,0-0.4,0-0.7,0c-0.1,0-0.3,0-0.4-0.1c-0.1,0-0.3-0.1-0.4-0.1c-0.3-0.1-0.5-0.2-0.8-0.4
			c-0.1-0.1-0.2-0.2-0.4-0.2c-0.4-0.3-0.7-0.6-0.9-0.9c-0.1-0.1-0.2-0.2-0.2-0.4c-0.1-0.2-0.3-0.5-0.4-0.8c0-0.1-0.1-0.3-0.1-0.4
			c0-0.1-0.1-0.3-0.1-0.4c0-0.2,0-0.4,0-0.7c0-0.1,0-0.2,0-0.3c0-0.1,0-0.1,0-0.2c0-0.1,0-0.1,0-0.2c0,0,0,0,0-0.1
			c0-0.1,0-0.1,0-0.2c0-0.1,0-0.1,0-0.2c0,0,0-0.1,0-0.1c0,0,0,0,0,0c0-0.2,0.1-0.3,0.2-0.5c0,0,0-0.1,0.1-0.2
			c0-0.1,0.1-0.2,0.1-0.3c0-0.1,0.1-0.2,0.2-0.3c0.1-0.2,0.3-0.4,0.5-0.6c0,0,0.1-0.1,0.1-0.1c0,0,0,0,0.1-0.1
			c0.1-0.1,0.2-0.2,0.3-0.2c0,0,0,0,0.1-0.1c0.2-0.2,0.4-0.3,0.7-0.4c0,0,0.1,0,0.1-0.1c0,0,0.1,0,0.1-0.1c0,0,0.1,0,0.1,0
			c0,0,0.1,0,0.2-0.1c0.5-0.2,1-0.3,1.5-0.3c0.3,0,0.5,0,0.7,0.1l0,0l0,0c0.4,0.1,0.7,0.2,1.1,0.3c1.6,0.7,2.7,2.2,2.7,4.1v2.1
			c0.6,0.1,1.2,0.5,1.7,1l0,0l0,0c0.5,0.6,0.7,1.3,0.6,2.1c-0.1,0.7-0.5,1.4-1.1,1.9c-0.2,0.2-0.4,0.3-0.6,0.5
			c0.3,0.3,0.7,0.4,1.2,0.4c1,0,1.8-0.8,1.8-1.8v-6.3C114.8,22.6,112.2,19.4,108.6,18.6z"/>
		<g>
			<path class="st11" d="M124.6,18.3c-1.6,0-3.1,0.5-4.4,1.4v-5.8c0-1-0.8-1.8-1.8-1.8c-1,0-1.8,0.8-1.8,1.8v12.5c0,4.4,3.6,8,8,8
				c4.4,0,8-3.6,8-8C132.6,22,129,18.3,124.6,18.3z M124.6,30.8c-2.4,0-4.4-2-4.4-4.4c0-2.5,2-4.5,4.4-4.5s4.4,2,4.4,4.5
				C129,28.8,127,30.8,124.6,30.8z"/>
			<path class="st11" d="M142.3,18.3c-4.4,0-8,3.6-8,8s3.6,8,8,8c4.4,0,8-3.6,8-8S146.7,18.3,142.3,18.3z M142.3,30.8
				c-2.5,0-4.4-2-4.4-4.4s2-4.4,4.4-4.4s4.4,2,4.4,4.4S144.8,30.8,142.3,30.8z"/>
			<path class="st11" d="M166.2,12.1c-1,0-1.8,0.8-1.8,1.8v5.8c-1.3-0.9-2.8-1.4-4.4-1.4c-4.4,0-8,3.6-8,8.1c0,4.4,3.6,8,8,8
				c4.4,0,8-3.6,8-8V13.9C168,12.9,167.2,12.1,166.2,12.1z M160,30.8c-2.4,0-4.4-2-4.4-4.4c0-2.5,2-4.5,4.4-4.5s4.4,2,4.4,4.5
				C164.4,28.8,162.5,30.8,160,30.8z"/>
		</g>
	</g>
</g>
</svg>
